<svg xmlns="http://www.w3.org/2000/svg" width="20" viewBox="0 0 375 375" height="20" version="1.0"><defs><clipPath id="prefix__a"><path d="M50 106h275v152H50zm0 0"/></clipPath><clipPath id="prefix__b"><path d="M109 46h157v283H109zm0 0"/></clipPath></defs><path fill="#fff" d="M-37.5-37.5h450v450h-450z"/><path fill="#fff" d="M-37.5-37.5h450v450h-450z"/><g clip-path="url(#prefix__a)"><path d="M50 257.5V106l137.5 73L325 106v151.5h-24v-112L187.5 206l-115-60.5v112zm0 0"/></g><g clip-path="url(#prefix__b)"><path d="M120 46h146v43.4L242 102V70H133v90l-24-12V46zm13 178v81h109V149.5h24V329H109V211.3zm0 0"/></g></svg>